<svg xmlns="http://www.w3.org/2000/svg" xmlns:xlink="http://www.w3.org/1999/xlink" version="1.1" height="250" width="250" viewBox="-25 -25 270 270">
<rect x="-20" y="-25" rx="20" ry="20" height="250" width="250" style="fill:rgb(23, 158, 247);opacity:1" />
<g id="SvgjsG1011" rel="mainfill" name="main_text" xmlns:name="mainText_mainfill" fill="#ffffff" transform="translate(-3.4809999465942383,93.53355026245117)"><path d="M15.684 51.90625 l-12.203 0 l6.2734 -32.313 l10.355 0 c5.5645 0 10.506 2.8145 9.2168 9.3887 c-0.49414 2.5781 -1.5898 3.9746 -4.082 5.6289 c2.8359 1.2031 4.4043 3.9746 3.6953 7.584 c-1.4395 7.498 -6.3594 9.7109 -13.256 9.7109 z M18.67 37.61925 l-6.875 0 l-1.7617 9.0664 l6.123 0 c4.1035 0 6.3809 -1.1602 7.0469 -4.6406 c0.53711 -2.707 -0.90234 -4.4258 -4.5332 -4.4258 z M19.293 24.72825 l-4.9844 0 l-1.5254 7.8418 l5.8438 0 c2.7285 0 4.5332 -1.418 4.9629 -3.6953 c0.47266 -2.3848 -0.85938 -4.1465 -4.2969 -4.1465 z M37.898475 52.20703 c-5.457 0 -5.6719 -3.2012 -5.0488 -6.3164 l5.0273 -25.867 l5.7793 -1.998 l-5.4355 27.865 c-0.2793 1.4609 0.19336 1.8691 1.2031 1.8691 c0.55859 0 0.98828 -0.15039 2.1699 -0.30078 l-0.12891 3.9746 c-1.6328 0.55859 -2.5781 0.77344 -3.5664 0.77344 z M57.277609375 32.82825 c-3.4805 0 -5.9512 3.7168 -6.6602 7.3691 c-0.75195 3.9316 0.70898 7.4336 3.7598 7.4336 c3.2656 0 5.8652 -3.4375 6.6387 -7.3906 c0.79492 -4.1035 -0.17188 -7.4121 -3.7383 -7.4121 z M53.474609375 52.44336 c-7.7129 0 -9.3887 -6.7246 -8.3145 -12.225 c0.94531 -4.9199 5.1133 -12.203 13.063 -12.203 c8.1641 0 9.2168 7.2617 8.25 12.182 c-1.0957 5.6289 -5.4141 12.246 -12.998 12.246 z M69.69531875 40.00425 c1.2891 -6.4453 5.3711 -12.01 13.17 -12.01 c3.6094 0 6.3594 2.041 7.627 5.1133 l-4.6191 2.8359 c-0.92383 -2.084 -2.2129 -2.9648 -4.082 -2.9648 c-3.7168 0 -5.8652 3.8672 -6.5527 7.2617 c-0.64453 3.3086 0.10742 7.1543 3.6953 7.1543 c2.0195 0 3.5879 -0.92383 5.4141 -3.1582 l3.8242 2.9648 c-2.6855 3.4805 -6.2734 5.2207 -10.033 5.2207 c-7.627 0 -9.6895 -5.9941 -8.4434 -12.418 z M104.90796875 51.90625 l-4.2109 -11.924 l-2.5566 2.1484 l-1.9336 9.7754 l-5.3281 0 l6.209 -31.926 l5.7363 -1.9766 l-3.373 17.424 l0.10742 0.085938 s3.9102 -3.1367 4.8984 -4.0605 c0.9668 -0.88086 3.6953 -3.0293 3.6953 -3.0293 l7.2188 0 l-10.334 8.4219 l5.8223 15.061 l-5.9512 0 z M114.962896875 40.00425 c1.2891 -6.4453 5.3711 -12.01 13.17 -12.01 c3.6094 0 6.3594 2.041 7.627 5.1133 l-4.6191 2.8359 c-0.92383 -2.084 -2.2129 -2.9648 -4.082 -2.9648 c-3.7168 0 -5.8652 3.8672 -6.5527 7.2617 c-0.64453 3.3086 0.10742 7.1543 3.6953 7.1543 c2.0195 0 3.5879 -0.92383 5.4141 -3.1582 l3.8242 2.9648 c-2.6855 3.4805 -6.2734 5.2207 -10.033 5.2207 c-7.627 0 -9.6895 -5.9941 -8.4434 -12.418 z M150.240546875 51.927734 l2.75 -14.072 c0.49414 -2.4922 0.085938 -4.7051 -2.7715 -4.7051 c-2.3203 0 -4.4473 2.2773 -5.7793 4.168 l-2.8145 14.609 l-5.457 0 l6.1875 -31.926 l5.8438 -1.9336 l-2.5996 13.299 c2.2129 -2.1055 4.3398 -3.3516 7.1543 -3.3516 c5.7363 0 6.6172 4.8984 5.6504 9.8613 l-2.7285 14.051 l-5.4355 0 z M174.689 44.51565 l0.75195 -3.8027 c-2.8789 0 -8.293 0.021484 -9.0664 4.0605 c-0.38672 1.998 0.45117 3.0938 2.5352 3.0938 c2.041 0 4.4258 -1.5898 5.7793 -3.3516 z M178.578 51.90625 l-4.4902 0 s0.2793 -2.5566 0.38672 -3.0723 c-1.9551 1.7402 -4.9199 3.6738 -7.6914 3.6738 c-4.6621 0 -6.6387 -3.3086 -5.7793 -7.6914 c1.4609 -7.498 9.668 -7.6699 15.104 -7.7129 c0.60156 -3.0938 0.21484 -4.2754 -2.8574 -4.2754 c-2.0195 0 -3.7813 0.62305 -6.252 2.1055 l-1.9336 -3.7168 c2.9219 -2.3418 5.9727 -3.1582 8.916 -3.1582 c8.5078 0 8.1641 5.5 6.9609 11.73 z M189.728540625 51.90625 l-5.3281 0 l3.7383 -19.1 l-2.4277 0 l0.85938 -4.3828 l7.7559 0 z M189.277340625 21.18325 c0.38672 -2.0625 2.4922 -3.7168 4.4043 -3.7168 c1.9336 0 3.373 1.6543 2.9863 3.7168 c-0.4082 2.0625 -2.5137 3.6953 -4.4258 3.6953 s-3.373 -1.6328 -2.9648 -3.6953 z M199.654271875 28.42425 l5.0273 0 l-0.42969 3.2441 c2.4492 -2.4277 4.5977 -3.459 7.0898 -3.6309 c6.209 -0.42969 7.0469 4.4688 6.0371 9.6895 l-2.7715 14.18 l-5.4355 0 l2.7715 -14.201 c0.51563 -2.6426 -0.021484 -4.6406 -2.7715 -4.6406 c-2.2344 0 -4.3398 2.084 -5.7578 4.125 l-2.8574 14.717 l-5.457 0 z"></path></g><g id="SvgjsG1012" rel="mainfill" name="main_text_2" xmlns:name="mainText2_mainfill" fill="#ffffff" transform="translate(20.678133964538574,138.01566886901855)"><path d="M15.684 51.90625 l-12.203 0 l6.2734 -32.313 l10.355 0 c5.5645 0 10.506 2.8145 9.2168 9.3887 c-0.49414 2.5781 -1.5898 3.9746 -4.082 5.6289 c2.8359 1.2031 4.4043 3.9746 3.6953 7.584 c-1.4395 7.498 -6.3594 9.7109 -13.256 9.7109 z M18.67 37.61925 l-6.875 0 l-1.7617 9.0664 l6.123 0 c4.1035 0 6.3809 -1.1602 7.0469 -4.6406 c0.53711 -2.707 -0.90234 -4.4258 -4.5332 -4.4258 z M19.293 24.72825 l-4.9844 0 l-1.5254 7.8418 l5.8438 0 c2.7285 0 4.5332 -1.418 4.9629 -3.6953 c0.47266 -2.3848 -0.85938 -4.1465 -4.2969 -4.1465 z M49.263374999999996 29.02525 l-2.3848 4.7695 c-1.0527 -0.4082 -1.7617 -0.62305 -2.2559 -0.62305 c-2.1484 0 -3.6953 1.418 -5.2637 3.8457 l-2.9004 14.889 l-5.3281 0 l4.5762 -23.482 l4.5332 0 l-0.21484 3.1367 c1.6758 -1.7617 3.2656 -3.2871 5.9297 -3.5449 c0.98828 -0.085938 2.3848 0.30078 3.3086 1.0098 z M66.0210625 51.884766 l-4.791 0 l0.17188 -3.0078 c-2.4492 2.4492 -4.5977 3.459 -7.0898 3.6523 c-6.209 0.45117 -7.0469 -4.4902 -6.0371 -9.7109 l2.8145 -14.395 l5.4355 0 l-2.8145 14.416 c-0.51563 2.6641 0.021484 4.6406 2.75 4.6406 c2.2559 0 4.3613 -2.0625 5.7793 -4.125 l2.8789 -14.932 l5.4785 0 z M70.68358125 47.07225 l4.1035 -2.5352 c0.85938 1.7402 2.4492 3.1797 4.834 3.1797 c1.6328 0 3.9961 -0.6875 4.3828 -2.5781 c0.77344 -3.6953 -11.322 -2.9648 -9.8613 -10.441 c0.90234 -4.6406 4.4902 -6.6602 9.0449 -6.6602 c3.1367 0 6.6387 1.8906 7.8633 4.9844 l-3.8242 2.3203 c-1.1387 -1.5254 -2.7715 -2.6426 -4.5332 -2.6426 c-1.4609 0 -3.1797 0.55859 -3.502 2.127 c-0.75195 3.6094 11.537 2.8574 10.055 10.527 c-0.92383 4.7695 -5.2637 7.1328 -9.8398 7.1328 c-3.8672 0 -7.1113 -1.5898 -8.7227 -5.4141 z M91.91014375 47.07225 l4.1035 -2.5352 c0.85938 1.7402 2.4492 3.1797 4.834 3.1797 c1.6328 0 3.9961 -0.6875 4.3828 -2.5781 c0.77344 -3.6953 -11.322 -2.9648 -9.8613 -10.441 c0.90234 -4.6406 4.4902 -6.6602 9.0449 -6.6602 c3.1367 0 6.6387 1.8906 7.8633 4.9844 l-3.8242 2.3203 c-1.1387 -1.5254 -2.7715 -2.6426 -4.5332 -2.6426 c-1.4609 0 -3.1797 0.55859 -3.502 2.127 c-0.75195 3.6094 11.537 2.8574 10.055 10.527 c-0.92383 4.7695 -5.2637 7.1328 -9.8398 7.1328 c-3.8672 0 -7.1113 -1.5898 -8.7227 -5.4141 z M135.00740625 41.636250000000004 l-15.104 0 c-0.70898 3.8887 0.60156 6.166 3.8457 6.166 c2.2559 0 4.3184 -0.42969 6.6816 -3.2871 l3.459 2.4492 c-3.2656 4.2109 -6.3164 5.543 -11.258 5.543 c-7.3477 0 -8.9805 -6.2734 -7.9277 -11.602 c1.4395 -7.3262 6.123 -12.826 13.277 -12.826 c7.3477 0 8.5508 6.252 7.498 11.795 c-0.064453 0.34375 -0.15039 0.55859 -0.47266 1.7617 z M120.87140625 37.898250000000004 l9.6895 0 c0.2793 -2.9219 -0.77344 -5.0488 -3.7813 -5.0488 c-2.793 0 -4.9414 2.2988 -5.9082 5.0488 z M144.181678125 52.20703 c-5.457 0 -5.6719 -3.2012 -5.0488 -6.3164 l5.0273 -25.867 l5.7793 -1.998 l-5.4355 27.865 c-0.2793 1.4609 0.19336 1.8691 1.2031 1.8691 c0.55859 0 0.98828 -0.15039 2.1699 -0.30078 l-0.12891 3.9746 c-1.6328 0.55859 -2.5781 0.77344 -3.5664 0.77344 z M149.7031125 47.07225 l4.1035 -2.5352 c0.85938 1.7402 2.4492 3.1797 4.834 3.1797 c1.6328 0 3.9961 -0.6875 4.3828 -2.5781 c0.77344 -3.6953 -11.322 -2.9648 -9.8613 -10.441 c0.90234 -4.6406 4.4902 -6.6602 9.0449 -6.6602 c3.1367 0 6.6387 1.8906 7.8633 4.9844 l-3.8242 2.3203 c-1.1387 -1.5254 -2.7715 -2.6426 -4.5332 -2.6426 c-1.4609 0 -3.1797 0.55859 -3.502 2.127 c-0.75195 3.6094 11.537 2.8574 10.055 10.527 c-0.92383 4.7695 -5.2637 7.1328 -9.8398 7.1328 c-3.8672 0 -7.1113 -1.5898 -8.7227 -5.4141 z"></path></g><defs id="SvgjsDefs1010"></defs><g id="SvgjsG1013" rel="mainfill" name="symbol" xmlns:name="symbol_mainfill" fill="#ffffff" transform="translate(33.95773117768317,-24.934562153839323) scale(1.4699715069094867)"><title xmlns="http://www.w3.org/2000/svg">INTERFACE UPDATE</title><path xmlns="http://www.w3.org/2000/svg" d="M41.72,22.27h-22a2,2,0,0,0-2,2v22a2,2,0,0,0,2,2h22a2,2,0,0,0,2-2v-22A2,2,0,0,0,41.72,22.27Zm-2,22h-18v-18h18Z"></path><path xmlns="http://www.w3.org/2000/svg" d="M41.72,56.27h-22a2,2,0,0,0-2,2v22a2,2,0,0,0,2,2h22a2,2,0,0,0,2-2v-22A2,2,0,0,0,41.72,56.27Zm-2,22h-18v-18h18Z"></path><path xmlns="http://www.w3.org/2000/svg" d="M75.72,56.27h-22a2,2,0,0,0-2,2v22a2,2,0,0,0,2,2h22a2,2,0,0,0,2-2v-22A2,2,0,0,0,75.72,56.27Zm-2,22h-18v-18h18Z"></path><path xmlns="http://www.w3.org/2000/svg" d="M81.69,33.85,66.14,18.3a2.06,2.06,0,0,0-2.83,0L47.75,33.85a2,2,0,0,0,0,2.83L63.31,52.24a2,2,0,0,0,2.83,0L81.69,36.68a2,2,0,0,0,0-2.83ZM64.72,48,52,35.27,64.72,22.54,77.45,35.27Z"></path></g>
</svg>